<svg data-v-423bf9ae="" xmlns="http://www.w3.org/2000/svg" viewBox="0 0 697 90" class="iconLeft"><!----><!----><!----><g data-v-423bf9ae="" id="a40a5163-0fa5-4084-8221-cd4a0ca4645d" fill="#2F190E" transform="matrix(5.882352501188353,0,0,5.882352501188353,99.04457330813551,-18.411759766465643)"><path d="M4.69 11.65L2.37 11.65L2.37 15.68L1.19 15.68L1.19 5.88L4.69 5.88L4.69 5.88Q5.45 5.88 6.01 6.10L6.01 6.10L6.01 6.10Q6.57 6.31 6.94 6.68L6.94 6.68L6.94 6.68Q7.31 7.04 7.50 7.53L7.50 7.53L7.50 7.53Q7.69 8.01 7.69 8.54L7.69 8.54L7.69 8.96L7.69 8.96Q7.69 9.49 7.50 9.98L7.50 9.98L7.50 9.98Q7.31 10.47 6.93 10.84L6.93 10.84L6.93 10.84Q6.55 11.21 5.99 11.43L5.99 11.43L5.99 11.43Q5.43 11.65 4.69 11.65L4.69 11.65ZM2.37 6.97L2.37 10.56L4.55 10.56L4.55 10.56Q6.51 10.56 6.51 8.88L6.51 8.88L6.51 8.62L6.51 8.62Q6.51 7.88 6.03 7.43L6.03 7.43L6.03 7.43Q5.54 6.97 4.55 6.97L4.55 6.97L2.37 6.97ZM12.26 15.68L12.26 12.24L12.01 12.24L8.95 5.88L10.26 5.88L12.77 11.23L12.94 11.23L15.44 5.88L16.76 5.88L13.69 12.24L13.44 12.24L13.44 15.68L12.26 15.68ZM24.49 12.15L24.49 15.68L23.31 15.68L23.31 12.40L23.31 12.40Q23.31 12.04 23.14 11.84L23.14 11.84L23.14 11.84Q22.97 11.65 22.55 11.65L22.55 11.65L19.50 11.65L19.50 15.68L18.33 15.68L18.33 5.88L21.83 5.88L21.83 5.88Q22.58 5.88 23.14 6.10L23.14 6.10L23.14 6.10Q23.70 6.31 24.07 6.68L24.07 6.68L24.07 6.68Q24.44 7.04 24.63 7.53L24.63 7.53L24.63 7.53Q24.82 8.01 24.82 8.54L24.82 8.54L24.82 8.96L24.82 8.96Q24.82 9.51 24.52 10.05L24.52 10.05L24.52 10.05Q24.22 10.60 23.59 10.89L23.59 10.89L23.59 11.06L23.59 11.06Q24.01 11.13 24.25 11.40L24.25 11.40L24.25 11.40Q24.49 11.66 24.49 12.15L24.49 12.15ZM19.50 6.97L19.50 10.56L21.69 10.56L21.69 10.56Q22.68 10.56 23.16 10.13L23.16 10.13L23.16 10.13Q23.65 9.70 23.65 8.88L23.65 8.88L23.65 8.62L23.65 8.62Q23.65 7.88 23.16 7.43L23.16 7.43L23.16 7.43Q22.68 6.97 21.69 6.97L21.69 6.97L19.50 6.97ZM26.54 11.87L26.54 9.69L26.54 9.69Q26.54 7.78 27.45 6.73L27.45 6.73L27.45 6.73Q28.36 5.68 29.99 5.68L29.99 5.68L29.99 5.68Q31.61 5.68 32.52 6.73L32.52 6.73L32.52 6.73Q33.43 7.78 33.43 9.69L33.43 9.69L33.43 11.87L33.43 11.87Q33.43 13.83 32.52 14.85L32.52 14.85L32.52 14.85Q31.61 15.88 29.99 15.88L29.99 15.88L29.99 15.88Q28.36 15.88 27.45 14.85L27.45 14.85L27.45 14.85Q26.54 13.83 26.54 11.87L26.54 11.87ZM29.99 14.78L29.99 14.78L29.99 14.78Q31.12 14.78 31.69 14.01L31.69 14.01L31.69 14.01Q32.26 13.23 32.26 11.79L32.26 11.79L32.26 9.77L32.26 9.77Q32.26 8.43 31.69 7.60L31.69 7.60L31.69 7.60Q31.12 6.78 29.99 6.78L29.99 6.78L29.99 6.78Q28.85 6.78 28.29 7.60L28.29 7.60L28.29 7.60Q27.72 8.43 27.72 9.77L27.72 9.77L27.72 11.79L27.72 11.79Q27.72 13.23 28.29 14.01L28.29 14.01L28.29 14.01Q28.85 14.78 29.99 14.78ZM44.17 15.68L44.17 5.88L50.19 5.88L50.19 6.97L45.35 6.97L45.35 10.22L50.11 10.22L50.11 11.31L45.35 11.31L45.35 15.68L44.17 15.68ZM52.58 6.97L52.58 5.88L58.80 5.88L58.80 6.97L56.28 6.97L56.28 14.59L58.80 14.59L58.80 15.68L52.58 15.68L52.58 14.59L55.10 14.59L55.10 6.97L52.58 6.97ZM63.35 5.88L66.18 15.18L66.35 15.18L66.35 5.88L67.52 5.88L67.52 15.68L65.17 15.68L62.34 6.38L62.17 6.38L62.17 15.68L61.00 15.68L61.00 5.88L63.35 5.88ZM75.64 15.68L74.93 13.24L70.73 13.24L70.01 15.68L68.75 15.68L71.72 5.88L73.93 5.88L76.90 15.68L75.64 15.68ZM72.91 6.38L72.74 6.38L71.05 12.15L74.61 12.15L72.91 6.38ZM80.49 5.88L83.31 15.18L83.48 15.18L83.48 5.88L84.66 5.88L84.66 15.68L82.31 15.68L79.48 6.38L79.31 6.38L79.31 15.68L78.13 15.68L78.13 5.88L80.49 5.88ZM90.02 14.78L90.02 14.78L90.02 14.78Q90.62 14.78 91.05 14.58L91.05 14.58L91.05 14.58Q91.48 14.38 91.75 14.04L91.75 14.04L91.75 14.04Q92.02 13.69 92.15 13.25L92.15 13.25L92.15 13.25Q92.29 12.81 92.29 12.32L92.29 12.32L92.29 12.15L93.46 12.15L93.46 12.32L93.46 12.32Q93.46 13.06 93.24 13.71L93.24 13.71L93.24 13.71Q93.02 14.36 92.58 14.85L92.58 14.85L92.58 14.85Q92.15 15.33 91.50 15.60L91.50 15.60L91.50 15.60Q90.86 15.88 90.02 15.88L90.02 15.88L90.02 15.88Q88.40 15.88 87.49 14.85L87.49 14.85L87.49 14.85Q86.58 13.83 86.58 11.87L86.58 11.87L86.58 9.69L86.58 9.69Q86.58 7.78 87.49 6.73L87.49 6.73L87.49 6.73Q88.40 5.68 90.02 5.68L90.02 5.68L90.02 5.68Q90.86 5.68 91.50 5.96L91.50 5.96L91.50 5.96Q92.15 6.23 92.58 6.71L92.58 6.71L92.58 6.71Q93.02 7.20 93.24 7.85L93.24 7.85L93.24 7.85Q93.46 8.50 93.46 9.24L93.46 9.24L93.46 9.41L92.29 9.41L92.29 9.24L92.29 9.24Q92.27 8.76 92.14 8.32L92.14 8.32L92.14 8.32Q92.01 7.87 91.73 7.53L91.73 7.53L91.73 7.53Q91.46 7.18 91.04 6.98L91.04 6.98L91.04 6.98Q90.62 6.78 90.02 6.78L90.02 6.78L90.02 6.78Q88.89 6.78 88.32 7.60L88.32 7.60L88.32 7.60Q87.75 8.43 87.75 9.77L87.75 9.77L87.75 11.79L87.75 11.79Q87.75 13.23 88.32 14.01L88.32 14.01L88.32 14.01Q88.89 14.78 90.02 14.78ZM95.56 15.68L95.56 5.88L101.50 5.88L101.50 6.97L96.74 6.97L96.74 10.22L101.42 10.22L101.42 11.31L96.74 11.31L96.74 14.59L101.58 14.59L101.58 15.68L95.56 15.68Z"></path></g><defs data-v-423bf9ae=""><linearGradient data-v-423bf9ae="" gradientTransform="rotate(25)" id="bc1c22b4-ddad-478d-8300-3054b8998a56" x1="0%" y1="0%" x2="100%" y2="0%"><stop data-v-423bf9ae="" offset="0%" style="stop-color: rgb(169, 37, 128); stop-opacity: 1;"></stop><stop data-v-423bf9ae="" offset="100%" style="stop-color: rgb(247, 188, 0); stop-opacity: 1;"></stop></linearGradient></defs><g data-v-423bf9ae="" id="86cb1c8a-a39d-4101-88d1-6d8ebcfc832f" transform="matrix(1.2062887667855828,0,0,1.2062887667855828,-16.979439648271082,-14.618836224853233)" stroke="none" fill="url(#bc1c22b4-ddad-478d-8300-3054b8998a56)"><path d="M85.665 66.445c0 8.631-3.059 15.561-8.17 20.621-2.229-5.08-5.6-5.871-6.709-15.342-.125-1.068-.443-2.09-1.051-2.889-3.715-4.891-1.465 8.984-6.369 3.279-3.135-3.645-9.346-30.67-10.451-21.51-.281 2.329-9.42 29.051-12.399 20.741-1.45-4.07-2.81-7.57-4.17-8.92-1.56-1.551-2.2 6.939-5.25 11.34-2.181 3.119-5.96 8.459-8.341 13.539-5.26-5.08-8.42-12.09-8.42-20.859 0-7.65 8.746-19.802 12.74-25.68 7.871-11.583 4.48-15.62 6.37-13.74 1.65 1.641 3.29 5.88 5.06 10.82 3.601 10.08 9.16-25.15 15.031-25.15 4.199 0-3.547 6.134 12.66 26.08 3.051 3.756 5.287.516 4.449-2.955-.875-3.625.828-6.852 2.375-2.625.418 1.14 1.797 3.858 2.186 5.11 3.065 9.89 10.459 18.14 10.459 28.14z"></path></g><!----></svg>